<svg id="visual" viewBox="0 0 1000 1000" width="1000" height="1000" xmlns="http://www.w3.org/2000/svg" xmlns:xlink="http://www.w3.org/1999/xlink" version="1.1"><g transform="translate(502.97737302135386 520.5927944975894)"><path d="M335.2 -414.5C412.8 -334.3 439.3 -208.2 465.1 -79.4C491 49.4 516.1 181 469.2 279.1C422.3 377.2 303.3 441.8 186.7 462.3C70.1 482.7 -44.1 458.9 -153.5 419.9C-262.9 380.9 -367.4 326.7 -432 238.1C-496.5 149.6 -521.1 26.7 -484.2 -68.6C-447.4 -163.9 -349.3 -231.6 -258.3 -309.4C-167.4 -387.2 -83.7 -475.1 22.5 -501.9C128.8 -528.8 257.5 -494.6 335.2 -414.5" fill="#a3baf5"></path></g></svg>