<?xml version="1.0" encoding="utf-8"?>
<!-- Generator: Adobe Illustrator 27.5.0, SVG Export Plug-In . SVG Version: 6.00 Build 0)  -->
<!-- Downloaded from https://www.freepik.com -->
<!-- Changed the color from #ec644e to #4c6be6 -->
<svg version="1.1" xmlns="http://www.w3.org/2000/svg" xmlns:xlink="http://www.w3.org/1999/xlink" x="0px" y="0px" viewBox="0 0 750 500" style="enable-background:new 0 0 750 500;" xml:space="preserve">
  <g id="Pictures">
    <g>
      <g>
        <rect x="258.681" y="49.281" style="fill:#FFFFFF;stroke:#9ABAE3;stroke-width:2.5;stroke-linecap:round;stroke-linejoin:round;stroke-miterlimit:10;" width="97.415" height="145.246" />
        <rect x="242.859" y="81.289" transform="matrix(-1.836970e-16 1 -1 -1.836970e-16 429.2921 -185.485)" style="fill:none;stroke:#9ABAE3;stroke-width:2.5;stroke-linecap:round;stroke-linejoin:round;stroke-miterlimit:10;" width="129.059" height="81.229" />
        <rect x="287.081" y="78.077" style="fill:#9ABAE3;" width="40.615" height="87.653" />
      </g>
      <g>
        <rect x="393.903" y="49.281" style="fill:#FFFFFF;stroke:#9ABAE3;stroke-width:2.5;stroke-linecap:round;stroke-linejoin:round;stroke-miterlimit:10;" width="97.415" height="145.246" />
        <rect x="378.081" y="81.289" transform="matrix(-1.836970e-16 1 -1 -1.836970e-16 564.5142 -320.707)" style="fill:none;stroke:#9ABAE3;stroke-width:2.5;stroke-linecap:round;stroke-linejoin:round;stroke-miterlimit:10;" width="129.059" height="81.229" />
        <rect x="422.303" y="78.077" style="fill:#9ABAE3;" width="40.615" height="87.653" />
      </g>
    </g>
  </g>
  <g id="Floor">
    <line style="fill:none;stroke:#263238;stroke-width:2.5;stroke-linecap:round;stroke-linejoin:round;stroke-miterlimit:10;" x1="64.256" y1="444.435" x2="685.744" y2="444.435" />
  </g>
  <g id="Plant">
    <g>
      <g>
        <path style="fill:#9ABAE3;stroke:#263238;stroke-width:2.5;stroke-linecap:round;stroke-linejoin:round;stroke-miterlimit:10;" d=" M93.437,213.047c-9.416-0.284,2.648-46.522-66.936-110.886C22.352,98.323,37.5,84.37,58.38,90.777c0,0-2.109,11.789-0.857,12.218 c1.251,0.429,9.385-8.536,10.555-8.891c1.171-0.355,6.91,1.03,8.098,2.779c1.188,1.749-5.636,21.134-5.081,21.674 c0.554,0.54,12.293-15.061,13.447-15.364c0.775-0.204,10.093,7.245,18.408,18.619c0.807,1.104-11.731,14.2-10.951,15.375 c0.676,1.018,14.461-9.73,15.317-8.826c3.337,3.526,5.381,9.926,6.937,14.335c0,0-27.336,19.507-25.884,22.299 c1.136,2.183,28.478-13.354,28.478-13.354s6.988,18.113,1.805,35.942c0,0-17.997,1.339-17.074,3.78 c0.675,1.786,14.909,5.465,14.909,5.465S106.446,213.439,93.437,213.047z" />
        <path style="fill:none;stroke:#263238;stroke-width:2.5;stroke-linecap:round;stroke-linejoin:round;stroke-miterlimit:10;" d=" M67.48,150.491c0.371,0.555,39.318,51.663,32.648,198.965" />
      </g>
      <g>
        <path style="fill:none;stroke:#263238;stroke-width:2.5;stroke-linecap:round;stroke-linejoin:round;stroke-miterlimit:10;" d=" M156.931,192.082c0,0-62.058,48.046-50.417,157.375" />

        <path style="fill:#9ABAE3;stroke:#263238;stroke-width:2.5;stroke-linecap:round;stroke-linejoin:round;stroke-miterlimit:10;" d=" M121.096,240.118c3.1,0.747,14.958-45.169,71.058-70.805c4.367-1.996-6.026-16.716-24.506-15.048c0,0-0.25,11.871-1.366,12.008 c-1.115,0.138-6.368-10.441-7.279-10.942c-0.911-0.5-5.924-0.355-7.219,0.891c-1.294,1.246,3.147,20.982,2.592,21.334 c-0.555,0.352-9.746-17.1-10.651-17.555c-0.905-0.454-13.74,5.659-19.641,12.899l9.099,25.437l-19.293-13.987 c0,0-11.134,10.717-11.4,24.622l12.303,8.758l-11.275,0.849C103.517,218.58,108.223,237.015,121.096,240.118z" />
      </g>
      <g>
        <path style="fill:#9ABAE3;stroke:#263238;stroke-width:2.5;stroke-linecap:round;stroke-linejoin:round;stroke-miterlimit:10;" d=" M89.604,301.976c-3.982,0.755-2.527-22.18-61.419-61.997c-3.587-2.425,5.214-15.154,21.9-13.894c0,0-0.963,15.912,0.045,16.021 c1.008,0.109,6.95-14.71,7.765-15.174c0.815-0.463,5.338-0.398,6.521,0.708c1.183,1.106-3.263,25.094-2.758,25.403 c0.505,0.31,9.265-21.68,10.076-22.102c0.811-0.422,12.465,4.922,17.882,11.373l-8.594,32.203l17.939-22.013 c0,0,10.182,9.517,10.605,22.053l-14.589,7.592l12.065,1.565C107.043,283.717,101.338,299.751,89.604,301.976z" />
        <path style="fill:none;stroke:#263238;stroke-width:2.5;stroke-linecap:round;stroke-linejoin:round;stroke-miterlimit:10;" d=" M71.233,275.921c18.768,21.949,23.964,35.909,23.964,73.536" />
      </g>
      <g>
        <polygon style="fill:#263238;" points="122.142,444.435 77.404,444.435 72.356,343.136 127.189,343.136 			" />
        <polygon style="fill:#FFFFFF;" points="127.049,346.6 79.693,346.6 84.599,444.43 77.401,444.43 72.354,343.137 127.19,343.137  		" />

        <polygon style="fill:none;stroke:#263238;stroke-width:2.5;stroke-linecap:round;stroke-linejoin:round;stroke-miterlimit:10;" points=" 122.142,444.435 77.404,444.435 72.356,343.136 127.189,343.136 			" />
      </g>
    </g>
  </g>
  <g id="Couch">
    <g>
      <g>
        <path style="fill:#4c6be6;" d="M270.198,225.49h-145.79c-9.355,0-16.938,7.583-16.938,16.938v104.527h179.667V242.428 C287.137,233.073,279.553,225.49,270.198,225.49z" />
        <path style="fill:#FFFFFF;" d="M283.31,231.712c-1.12-0.29-2.3-0.45-3.52-0.45H128.13c-7.74,0-14,6.27-14,14v101.69h-6.66 v-104.52c0-9.36,7.58-16.94,16.94-16.94H270.2C275.49,225.491,280.21,227.911,283.31,231.712z" />
        <path style="fill:none;stroke:#263238;stroke-width:2.5;stroke-linecap:round;stroke-linejoin:round;stroke-miterlimit:10;" d=" M270.198,225.49h-145.79c-9.355,0-16.938,7.583-16.938,16.938v104.527h179.667V242.428 C287.137,233.073,279.553,225.49,270.198,225.49z" />
        <g>
          <g>
            <path style="fill:none;stroke:#263238;stroke-width:2.5;stroke-linecap:round;stroke-linejoin:round;stroke-miterlimit:10;" d="M148.416,269.731l-0.611-1.185l-0.611,1.185c-0.743,1.439-1.915,2.612-3.355,3.355l-1.185,0.611l1.185,0.611 	c1.439,0.743,2.612,1.915,3.355,3.355l0.611,1.185l0.611-1.185c0.743-1.439,1.915-2.612,3.355-3.355l1.185-0.611l-1.185-0.611 	C150.331,272.343,149.159,271.17,148.416,269.731z" />
          </g>
          <g>
            <path style="fill:none;stroke:#263238;stroke-width:2.5;stroke-linecap:round;stroke-linejoin:round;stroke-miterlimit:10;" d="M197.914,269.731l-0.611-1.185l-0.611,1.185c-0.743,1.439-1.915,2.612-3.355,3.355l-1.185,0.611l1.185,0.611 	c1.439,0.743,2.612,1.915,3.355,3.355l0.611,1.185l0.611-1.185c0.743-1.439,1.915-2.612,3.355-3.355l1.185-0.611l-1.185-0.611 	C199.83,272.343,198.657,271.17,197.914,269.731z" />
          </g>
          <g>
            <path style="fill:none;stroke:#263238;stroke-width:2.5;stroke-linecap:round;stroke-linejoin:round;stroke-miterlimit:10;" d="M247.413,269.731l-0.611-1.185l-0.611,1.185c-0.743,1.439-1.915,2.612-3.355,3.355l-1.185,0.611l1.185,0.611 	c1.44,0.743,2.612,1.915,3.355,3.355l0.611,1.185l0.611-1.185c0.743-1.439,1.915-2.612,3.355-3.355l1.185-0.611l-1.185-0.611 	C249.328,272.343,248.155,271.17,247.413,269.731z" />
          </g>
          <g>
            <path style="fill:none;stroke:#263238;stroke-width:2.5;stroke-linecap:round;stroke-linejoin:round;stroke-miterlimit:10;" d="M148.416,311.549l-0.611-1.185l-0.611,1.185c-0.743,1.44-1.915,2.612-3.355,3.355l-1.185,0.611l1.185,0.611 	c1.439,0.743,2.612,1.915,3.355,3.355l0.611,1.185l0.611-1.185c0.743-1.439,1.915-2.612,3.355-3.355l1.185-0.611l-1.185-0.611 	C150.331,314.161,149.159,312.989,148.416,311.549z" />
          </g>
          <g>
            <path style="fill:none;stroke:#263238;stroke-width:2.5;stroke-linecap:round;stroke-linejoin:round;stroke-miterlimit:10;" d="M197.914,311.549l-0.611-1.185l-0.611,1.185c-0.743,1.44-1.915,2.612-3.355,3.355l-1.185,0.611l1.185,0.611 	c1.439,0.743,2.612,1.915,3.355,3.355l0.611,1.185l0.611-1.185c0.743-1.439,1.915-2.612,3.355-3.355l1.185-0.611l-1.185-0.611 	C199.83,314.161,198.657,312.989,197.914,311.549z" />
          </g>
          <g>
            <path style="fill:none;stroke:#263238;stroke-width:2.5;stroke-linecap:round;stroke-linejoin:round;stroke-miterlimit:10;" d="M247.413,311.549l-0.611-1.185l-0.611,1.185c-0.743,1.44-1.915,2.612-3.355,3.355l-1.185,0.611l1.185,0.611 	c1.44,0.743,2.612,1.915,3.355,3.355l0.611,1.185l0.611-1.185c0.743-1.439,1.915-2.612,3.355-3.355l1.185-0.611l-1.185-0.611 	C249.328,314.161,248.155,312.989,247.413,311.549z" />
          </g>
        </g>
      </g>
      <g>
        <path style="fill:#4c6be6;" d="M448.171,225.49H304.075c-9.355,0-16.938,7.583-16.938,16.938v104.527h177.973V242.428 C465.109,233.073,457.526,225.49,448.171,225.49z" />
        <path style="fill:#FFFFFF;" d="M465.11,242.431v5.95c0-9.35-7.58-16.93-16.94-16.93h-144.1c-9.35,0-16.93,7.58-16.93,16.93v-5.95 c0-9.36,7.58-16.94,16.93-16.94h144.1C457.53,225.491,465.11,233.071,465.11,242.431z" />
        <path style="fill:none;stroke:#263238;stroke-width:2.5;stroke-linecap:round;stroke-linejoin:round;stroke-miterlimit:10;" d=" M448.171,225.49H304.075c-9.355,0-16.938,7.583-16.938,16.938v104.527h177.973V242.428 C465.109,233.073,457.526,225.49,448.171,225.49z" />
        <g>
          <g>
            <path style="fill:none;stroke:#263238;stroke-width:2.5;stroke-linecap:round;stroke-linejoin:round;stroke-miterlimit:10;" d="M327.236,269.731l-0.611-1.185l-0.611,1.185c-0.743,1.439-1.915,2.612-3.355,3.355l-1.185,0.611l1.185,0.611 	c1.439,0.743,2.612,1.915,3.355,3.355l0.611,1.185l0.611-1.185c0.743-1.439,1.915-2.612,3.355-3.355l1.185-0.611l-1.185-0.611 	C329.151,272.343,327.979,271.17,327.236,269.731z" />
          </g>
          <g>
            <path style="fill:none;stroke:#263238;stroke-width:2.5;stroke-linecap:round;stroke-linejoin:round;stroke-miterlimit:10;" d="M376.734,269.731l-0.611-1.185l-0.611,1.185c-0.743,1.439-1.915,2.612-3.355,3.355l-1.185,0.611l1.185,0.611 	c1.439,0.743,2.612,1.915,3.355,3.355l0.611,1.185l0.611-1.185c0.743-1.439,1.915-2.612,3.355-3.355l1.185-0.611l-1.185-0.611 	C378.65,272.343,377.477,271.17,376.734,269.731z" />
          </g>
          <g>
            <path style="fill:none;stroke:#263238;stroke-width:2.5;stroke-linecap:round;stroke-linejoin:round;stroke-miterlimit:10;" d="M426.232,269.731l-0.611-1.185l-0.611,1.185c-0.743,1.439-1.915,2.612-3.355,3.355l-1.185,0.611l1.185,0.611 	c1.44,0.743,2.612,1.915,3.355,3.355l0.611,1.185l0.611-1.185c0.743-1.439,1.915-2.612,3.355-3.355l1.185-0.611l-1.185-0.611 	C428.148,272.343,426.975,271.17,426.232,269.731z" />
          </g>
          <g>
            <path style="fill:none;stroke:#263238;stroke-width:2.5;stroke-linecap:round;stroke-linejoin:round;stroke-miterlimit:10;" d="M327.236,311.549l-0.611-1.185l-0.611,1.185c-0.743,1.44-1.915,2.612-3.355,3.355l-1.185,0.611l1.185,0.611 	c1.439,0.743,2.612,1.915,3.355,3.355l0.611,1.185l0.611-1.185c0.743-1.439,1.915-2.612,3.355-3.355l1.185-0.611l-1.185-0.611 	C329.151,314.161,327.979,312.989,327.236,311.549z" />
          </g>
          <g>
            <path style="fill:none;stroke:#263238;stroke-width:2.5;stroke-linecap:round;stroke-linejoin:round;stroke-miterlimit:10;" d="M376.734,311.549l-0.611-1.185l-0.611,1.185c-0.743,1.44-1.915,2.612-3.355,3.355l-1.185,0.611l1.185,0.611 	c1.439,0.743,2.612,1.915,3.355,3.355l0.611,1.185l0.611-1.185c0.743-1.439,1.915-2.612,3.355-3.355l1.185-0.611l-1.185-0.611 	C378.65,314.161,377.477,312.989,376.734,311.549z" />
          </g>
          <g>
            <path style="fill:none;stroke:#263238;stroke-width:2.5;stroke-linecap:round;stroke-linejoin:round;stroke-miterlimit:10;" d="M426.232,311.549l-0.611-1.185l-0.611,1.185c-0.743,1.44-1.915,2.612-3.355,3.355l-1.185,0.611l1.185,0.611 	c1.44,0.743,2.612,1.915,3.355,3.355l0.611,1.185l0.611-1.185c0.743-1.439,1.915-2.612,3.355-3.355l1.185-0.611l-1.185-0.611 	C428.148,314.161,426.975,312.989,426.232,311.549z" />
          </g>
        </g>
      </g>
      <g>
        <path style="fill:#4c6be6;" d="M628.838,225.49h-146.79c-9.355,0-16.938,7.583-16.938,16.938v104.527h180.667V242.428 C645.776,233.073,638.193,225.49,628.838,225.49z" />
        <path style="fill:#FFFFFF;" d="M645.78,242.431v6c0-9.35-7.59-16.94-16.94-16.94H482.05c-9.36,0-16.94,7.59-16.94,16.94v-6 c0-9.36,7.58-16.94,16.94-16.94h146.79C638.19,225.491,645.78,233.071,645.78,242.431z" />
        <path style="fill:none;stroke:#263238;stroke-width:2.5;stroke-linecap:round;stroke-linejoin:round;stroke-miterlimit:10;" d=" M628.838,225.49h-146.79c-9.355,0-16.938,7.583-16.938,16.938v104.527h180.667V242.428 C645.776,233.073,638.193,225.49,628.838,225.49z" />
        <g>
          <g>
            <path style="fill:none;stroke:#263238;stroke-width:2.5;stroke-linecap:round;stroke-linejoin:round;stroke-miterlimit:10;" d="M506.556,269.731l-0.611-1.185l-0.611,1.185c-0.743,1.439-1.915,2.612-3.355,3.355l-1.185,0.611l1.185,0.611 	c1.44,0.743,2.612,1.915,3.355,3.355l0.611,1.185l0.611-1.185c0.743-1.439,1.915-2.612,3.355-3.355l1.185-0.611l-1.185-0.611 	C508.471,272.343,507.299,271.17,506.556,269.731z" />
          </g>
          <g>
            <path style="fill:none;stroke:#263238;stroke-width:2.5;stroke-linecap:round;stroke-linejoin:round;stroke-miterlimit:10;" d="M556.054,269.731l-0.611-1.185l-0.611,1.185c-0.743,1.439-1.915,2.612-3.355,3.355l-1.185,0.611l1.185,0.611 	c1.439,0.743,2.612,1.915,3.355,3.355l0.611,1.185l0.611-1.185c0.743-1.439,1.915-2.612,3.355-3.355l1.185-0.611l-1.185-0.611 	C557.969,272.343,556.797,271.17,556.054,269.731z" />
          </g>
          <g>
            <path style="fill:none;stroke:#263238;stroke-width:2.5;stroke-linecap:round;stroke-linejoin:round;stroke-miterlimit:10;" d="M605.552,269.731l-0.611-1.185l-0.611,1.185c-0.743,1.439-1.915,2.612-3.355,3.355l-1.185,0.611l1.185,0.611 	c1.44,0.743,2.612,1.915,3.355,3.355l0.611,1.185l0.611-1.185c0.743-1.439,1.915-2.612,3.355-3.355l1.185-0.611l-1.185-0.611 	C607.468,272.343,606.295,271.17,605.552,269.731z" />
          </g>
          <g>
            <path style="fill:none;stroke:#263238;stroke-width:2.5;stroke-linecap:round;stroke-linejoin:round;stroke-miterlimit:10;" d="M506.556,311.549l-0.611-1.185l-0.611,1.185c-0.743,1.44-1.915,2.612-3.355,3.355l-1.185,0.611l1.185,0.611 	c1.44,0.743,2.612,1.915,3.355,3.355l0.611,1.185l0.611-1.185c0.743-1.439,1.915-2.612,3.355-3.355l1.185-0.611l-1.185-0.611 	C508.471,314.161,507.299,312.989,506.556,311.549z" />
          </g>
          <g>
            <path style="fill:none;stroke:#263238;stroke-width:2.5;stroke-linecap:round;stroke-linejoin:round;stroke-miterlimit:10;" d="M556.054,311.549l-0.611-1.185l-0.611,1.185c-0.743,1.44-1.915,2.612-3.355,3.355l-1.185,0.611l1.185,0.611 	c1.439,0.743,2.612,1.915,3.355,3.355l0.611,1.185l0.611-1.185c0.743-1.439,1.915-2.612,3.355-3.355l1.185-0.611l-1.185-0.611 	C557.969,314.161,556.797,312.989,556.054,311.549z" />
          </g>
          <g>
            <path style="fill:none;stroke:#263238;stroke-width:2.5;stroke-linecap:round;stroke-linejoin:round;stroke-miterlimit:10;" d="M605.552,311.549l-0.611-1.185l-0.611,1.185c-0.743,1.44-1.915,2.612-3.355,3.355l-1.185,0.611l1.185,0.611 	c1.44,0.743,2.612,1.915,3.355,3.355l0.611,1.185l0.611-1.185c0.743-1.439,1.915-2.612,3.355-3.355l1.185-0.611l-1.185-0.611 	C607.468,314.161,606.295,312.989,605.552,311.549z" />
          </g>
        </g>
      </g>
      <g>
        <g>
          <path style="fill:#4c6be6;" d="M684.66,310.025v103.617c0,4.361-3.535,7.897-7.897,7.897H73.237 c-4.361,0-7.897-3.535-7.897-7.897V310.025c0-4.361,3.535-7.897,7.897-7.897h32.327c4.361,0,7.897,3.535,7.897,7.897v59.327 c0,4.361,3.535,7.897,7.897,7.897h507.297c4.361,0,7.897-3.536,7.897-7.897v-59.327c0-4.361,3.535-7.897,7.897-7.897h32.317 C681.125,302.129,684.66,305.664,684.66,310.025z" />
        </g>
        <g>
          <path style="fill:#FFFFFF;" d="M113.16,307.871c-0.39-0.06-0.78-0.09-1.19-0.09H77.49c-3.17,0-5.75,2.58-5.75,5.75v105.77 c0,0.75,0.1,1.47,0.3,2.15c-3.79-0.58-6.7-3.86-6.7-7.81v-103.62c0-4.36,3.54-7.89,7.9-7.89h32.32 C109.17,302.131,112.22,304.561,113.16,307.871z" />
        </g>
        <g>
          <path style="fill:none;stroke:#263238;stroke-width:2.5;stroke-linecap:round;stroke-linejoin:round;stroke-miterlimit:10;" d=" M684.66,310.025v103.617c0,4.361-3.535,7.897-7.897,7.897H73.237c-4.361,0-7.897-3.535-7.897-7.897V310.025 c0-4.361,3.535-7.897,7.897-7.897h32.327c4.361,0,7.897,3.535,7.897,7.897v59.327c0,4.361,3.535,7.897,7.897,7.897h507.297 c4.361,0,7.897-3.536,7.897-7.897v-59.327c0-4.361,3.535-7.897,7.897-7.897h32.317 C681.125,302.129,684.66,305.664,684.66,310.025z" />
        </g>
      </g>
      <g style="opacity:0.2;">
        <path style="fill:#263238;" d="M643.08,360.751v20.3c0,6.06-4.91,10.97-10.97,10.97H476.08c-6.06,0-10.97-1.91-10.97-7.97 c0,6.06-4.91,7.97-10.97,7.97H298.11c-6.06,0-10.97-1.91-10.97-7.97c0,6.06-4.91,7.97-10.97,7.97H120.13 c-6.05,0-10.97-4.91-10.97-10.97v-20.3c0-6.06,4.92-10.97,10.97-10.97c0,0,66.51,1.62,83.8,1.67 c22.22,0.05,72.24-1.67,72.24-1.67c6.06,0,10.97,4.91,10.97,10.97c0-6.06,4.91-10.97,10.97-10.97c0,0,66.5,1.62,83.8,1.67 c22.22,0.05,72.23-1.67,72.23-1.67c6.06,0,10.97,4.91,10.97,10.97c0-6.06,4.91-10.97,10.97-10.97c0,0,66.5,1.62,83.8,1.67 c22.22,0.05,72.23-1.67,72.23-1.67C638.17,349.781,643.08,354.691,643.08,360.751z" />
      </g>
      <g>
        <g>
          <path style="fill:#4c6be6;" d="M276.167,383.161H120.133c-6.058,0-10.97-4.911-10.97-10.97v-20.3 c0-6.058,4.911-10.97,10.97-10.97c0,0,65.502,0.617,82.8,0.663c22.219,0.059,73.233-0.663,73.233-0.663 c6.058,0,10.97,4.911,10.97,10.97v20.3C287.137,378.249,282.225,383.161,276.167,383.161z" />
          <path style="fill:#FFFFFF;" d="M286.24,347.541c-1.44-0.69-3.05-1.08-4.75-1.08c0,0-51.01,0.72-73.23,0.67 c-17.3-0.05-82.8-0.67-82.8-0.67c-6.06,0-10.97,4.91-10.97,10.97v20.3c0,1.55,0.32,3.02,0.89,4.35 c-3.68-1.77-6.22-5.53-6.22-9.89v-20.3c0-6.06,4.92-10.97,10.97-10.97c0,0,65.51,0.62,82.8,0.66 c22.22,0.06,73.24-0.66,73.24-0.66C280.68,340.921,284.56,343.641,286.24,347.541z" />
          <path style="fill:none;stroke:#263238;stroke-width:2.5;stroke-linecap:round;stroke-linejoin:round;stroke-miterlimit:10;" d=" M276.167,383.161H120.133c-6.058,0-10.97-4.911-10.97-10.97v-20.3c0-6.058,4.911-10.97,10.97-10.97c0,0,65.502,0.617,82.8,0.663 c22.219,0.059,73.233-0.663,73.233-0.663c6.058,0,10.97,4.911,10.97,10.97v20.3 C287.137,378.249,282.225,383.161,276.167,383.161z" />
        </g>
        <g>
          <path style="fill:#4c6be6;" d="M454.139,383.161H298.106c-6.059,0-10.97-4.911-10.97-10.97v-20.3 c0-6.058,4.911-10.97,10.97-10.97c0,0,67.502-0.383,84.8-0.337c22.219,0.059,71.233,0.337,71.233,0.337 c6.058,0,10.97,4.911,10.97,10.97v20.3C465.109,378.249,460.198,383.161,454.139,383.161z" />
          <path style="fill:#FFFFFF;" d="M465.11,351.891v6.37c0-6.06-4.91-10.97-10.97-10.97c0,0-49.02-0.28-71.24-0.34 c-17.29-0.04-84.8,0.34-84.8,0.34c-5.87,0-10.66,4.61-10.96,10.41v-5.81c0-6.06,4.91-10.97,10.97-10.97c0,0,67.5-0.38,84.8-0.34 c22.22,0.06,71.23,0.34,71.23,0.34C460.2,340.921,465.11,345.831,465.11,351.891z" />
          <path style="fill:none;stroke:#263238;stroke-width:2.5;stroke-linecap:round;stroke-linejoin:round;stroke-miterlimit:10;" d=" M454.139,383.161H298.106c-6.059,0-10.97-4.911-10.97-10.97v-20.3c0-6.058,4.911-10.97,10.97-10.97c0,0,67.502-0.383,84.8-0.337 c22.219,0.059,71.233,0.337,71.233,0.337c6.058,0,10.97,4.911,10.97,10.97v20.3 C465.109,378.249,460.198,383.161,454.139,383.161z" />
        </g>
        <g>
          <path style="fill:#4c6be6;" d="M632.112,383.161H476.079c-6.058,0-10.97-4.911-10.97-10.97v-20.3 c0-6.058,4.911-10.97,10.97-10.97c0,0,61.349,0.663,94.8,0.663c22.219,0,61.233-0.663,61.233-0.663 c6.058,0,10.97,4.911,10.97,10.97v20.3C643.082,378.249,638.171,383.161,632.112,383.161z" />
          <path style="fill:#FFFFFF;" d="M643.08,351.891v6.03c0-6.06-4.91-10.97-10.97-10.97c0,0-39.01,0.67-61.23,0.67 c-33.45,0-94.8-0.67-94.8-0.67c-6.06,0-10.97,4.91-10.97,10.97v-6.03c0-6.06,4.91-10.97,10.97-10.97c0,0,61.35,0.66,94.8,0.66 c22.22,0,61.23-0.66,61.23-0.66C638.17,340.921,643.08,345.831,643.08,351.891z" />
          <path style="fill:none;stroke:#263238;stroke-width:2.5;stroke-linecap:round;stroke-linejoin:round;stroke-miterlimit:10;" d=" M632.112,383.161H476.079c-6.058,0-10.97-4.911-10.97-10.97v-20.3c0-6.058,4.911-10.97,10.97-10.97c0,0,61.349,0.663,94.8,0.663 c22.219,0,61.233-0.663,61.233-0.663c6.058,0,10.97,4.911,10.97,10.97v20.3C643.082,378.249,638.171,383.161,632.112,383.161z" />
        </g>
      </g>
      <g>
        <polygon style="fill:#9ABAE3;stroke:#263238;stroke-width:2.5;stroke-linecap:round;stroke-linejoin:round;stroke-miterlimit:10;" points=" 130.294,463.677 117.283,463.677 112.283,421.516 130.294,421.516 			" />
        <polygon style="fill:#9ABAE3;stroke:#263238;stroke-width:2.5;stroke-linecap:round;stroke-linejoin:round;stroke-miterlimit:10;" points=" 619.706,463.677 632.717,463.677 637.717,421.516 619.706,421.516 			" />
      </g>
    </g>
  </g>
  <g id="Cushions">
    <g>
      <g>
        <path style="fill:#9ABAE3;" d="M612.922,244.16c4.626,1.234,1.176,11.252,1.363,15.007c0.188,3.756,13.392,46.958,13.107,65.309 c-0.101,6.518,6.749,18.082,2.993,20.148c-3.756,2.066-30.233,0-40.749,0s-45.443-0.563-50.513-0.188 c-5.07,0.376-9.201,3.243-11.079,1.434c-1.878-1.809-1.028-8.382-1.028-11.762c0-3.38-5.964-17.838-5.347-69.944 c0.084-7.138-4.042-12.68-2.727-16.435c1.315-3.756,9.199,0.535,13.896,0.188c38.12-2.817,63.747-1.127,69.381-1.69 C607.852,245.663,610.106,243.409,612.922,244.16z" />
        <path style="fill:#FFFFFF;" d="M615.21,251.38c-1.33,0.42-2.91,0.83-4.92,1.03c-5.63,0.57-32.26-1.12-70.38,1.69 c-4.7,0.35-10.03-0.83-11.35,2.92c-1.31,3.76,1.26,5.19,1.18,12.33c-0.62,52.11,5.35,67.56,5.35,70.94 c0,1.32-0.13,3.12-0.17,4.94c-3.11,0.87-5.55,1.92-6.88,0.64c-1.87-1.81-1.02-8.38-1.02-11.76c0-3.38-5.97-17.84-5.35-69.95 c0.08-7.13-4.04-12.68-2.73-16.43c1.32-3.76,9.2,0.53,13.9,0.19c38.12-2.82,63.75-1.13,69.38-1.69c5.63-0.57,7.89-2.82,10.7-2.07 C615.4,244.82,615.56,247.99,615.21,251.38z" />
        <path style="fill:none;stroke:#263238;stroke-width:2.5;stroke-linecap:round;stroke-linejoin:round;stroke-miterlimit:10;" d=" M612.922,244.16c4.626,1.234,1.176,11.252,1.363,15.007c0.188,3.756,13.392,46.958,13.107,65.309 c-0.101,6.518,6.749,18.082,2.993,20.148c-3.756,2.066-30.233,0-40.749,0s-45.443-0.563-50.513-0.188 c-5.07,0.376-9.201,3.243-11.079,1.434c-1.878-1.809-1.028-8.382-1.028-11.762c0-3.38-5.964-17.838-5.347-69.944 c0.084-7.138-4.042-12.68-2.727-16.435c1.315-3.756,9.199,0.535,13.896,0.188c38.12-2.817,63.747-1.127,69.381-1.69 C607.852,245.663,610.106,243.409,612.922,244.16z" />
        <path style="fill:none;stroke:#263238;stroke-width:2.5;stroke-linecap:round;stroke-linejoin:round;stroke-miterlimit:10;" d=" M546.982,301.51c0,0,13.164,18.806,42.741,23.422" />
        <path style="fill:none;stroke:#263238;stroke-width:2.5;stroke-linecap:round;stroke-linejoin:round;stroke-miterlimit:10;" d=" M568.353,303.903c0,0,10.277,8.378,23.422,5.984" />
      </g>
      <g>
        <g>
          <path style="fill:#9ABAE3;" d="M128.292,247.437c-2.055,1.413-0.927,6.488-0.742,10.01c0.185,3.522-12.88,39.77-6.708,70.628 c0.741,3.707-3.234,14.089-2.173,16.128s6.808-0.741,16.818,0c10.01,0.742,56.168,2.966,68.959,2.039 c12.791-0.927,20.02-0.185,20.947-1.668c0.927-1.483-2.157-7.458-1.483-11.122c3.747-20.372,1.182-62.59,1.87-68.707 c0.688-6.117,3.636-12.941,1.226-16.278c-1.228-1.7-7.499-1.584-13.616-1.028c-6.117,0.556-46.355-3.151-68.971-0.801 C135.375,247.576,131.258,245.398,128.292,247.437z" />
          <path style="fill:#FFFFFF;" d="M227.89,253.05c-2.26-0.04-4.89,0.12-7.49,0.36c-6.11,0.56-46.35-3.15-68.97-0.8 c-9.04,0.94-11.751,0.323-14.711,2.363c-2.06,1.41-2.339,4.927-2.159,8.447c0.19,3.52-12.88,39.77-6.7,70.63 c0.43,2.17-0.75,6.61-1.58,10.34c-4.36,0.45-6.94,1.11-7.61-0.19c-1.06-2.04,2.91-12.42,2.17-16.13 c-6.17-30.85,6.9-67.1,6.71-70.62c-0.18-3.52-1.31-8.6,0.74-10.01c2.97-2.04,7.08,0.14,16.13-0.8 c22.62-2.35,62.85,1.35,68.97,0.8c6.12-0.56,12.39-0.67,13.62,1.03C227.85,249.63,228.04,251.22,227.89,253.05z" />
          <path style="fill:none;stroke:#263238;stroke-width:2.5;stroke-linecap:round;stroke-linejoin:round;stroke-miterlimit:10;" d="M128.292,247.437c-2.055,1.413-0.927,6.488-0.742,10.01c0.185,3.522-12.88,39.77-6.708,70.628 c0.741,3.707-3.234,14.089-2.173,16.128s6.808-0.741,16.818,0c10.01,0.742,56.168,2.966,68.959,2.039 c12.791-0.927,20.02-0.185,20.947-1.668c0.927-1.483-2.157-7.458-1.483-11.122c3.747-20.372,1.182-62.59,1.87-68.707 c0.688-6.117,3.636-12.941,1.226-16.278c-1.228-1.7-7.499-1.584-13.616-1.028c-6.117,0.556-46.355-3.151-68.971-0.801 C135.375,247.576,131.258,245.398,128.292,247.437z" />
        </g>
        <path style="fill:none;stroke:#263238;stroke-width:2.5;stroke-linecap:round;stroke-linejoin:round;stroke-miterlimit:10;" d="M152.701,316.555c0,0,22.225,0.689,40.69-12.649" />
        <path style="fill:none;stroke:#263238;stroke-width:2.5;stroke-linecap:round;stroke-linejoin:round;stroke-miterlimit:10;" d="M164.327,303.906c0,0,8.377,2.049,15.9-1.199" />
      </g>
    </g>
  </g>
</svg>