<?xml version="1.0" encoding="UTF-8" standalone="no"?>
<svg version="1.0" width="144pt" height="144pt" viewBox="0 0 144 144" preserveAspectRatio="xMidYMid" id="svg23" xmlns="http://www.w3.org/2000/svg" xmlns:svg="http://www.w3.org/2000/svg">
  <defs id="defs23" />
  <g transform="matrix(0.1,0,0,-0.1,0,144)" fill="#000000" stroke="none" id="g23">
    <path d="m 507,1309 c -50,-17 -137,-63 -137,-72 0,-2 35,14 78,35 50,25 100,42 142,47 58,8 60,9 20,9 -25,1 -71,-8 -103,-19 z" id="path1" />
    <path d="m 661,1326 c 2,-2 36,-6 74,-9 44,-4 59,-3 40,2 -30,9 -122,14 -114,7 z" id="path2" />
    <path d="m 813,1303 c 3,-5 -42,-7 -99,-5 -67,2 -104,0 -104,-7 0,-6 -7,-8 -15,-5 -8,4 -23,3 -32,-1 -10,-5 -22,-9 -28,-10 -52,-13 -142,-50 -148,-62 -8,-12 -10,-12 -21,2 -10,14 -22,6 -96,-62 C 150,1043 100,983 57,896 12,807 6,755 27,608 44,484 71,412 124,353 134,340 140,327 136,323 117,304 36,457 16,550 7,590 1,604 1,585 -1,510 66,367 132,303 221,217 363,154 488,145 c 31,-2 100,-8 152,-14 97,-11 220,-3 330,20 30,6 65,12 78,14 31,2 142,56 136,66 -2,4 1,11 7,15 8,5 9,3 4,-6 -6,-10 -4,-12 8,-7 9,3 18,3 20,-1 2,-4 3,-2 1,5 -1,6 10,16 26,23 29,12 70,50 54,50 -5,0 -4,4 2,8 13,9 54,76 54,88 0,5 -13,-10 -29,-34 -30,-47 -106,-122 -122,-122 -6,0 13,28 41,63 132,163 197,368 165,523 -20,92 -73,199 -130,256 -76,78 -258,187 -289,174 -6,-2 -2,-5 9,-5 15,-1 17,-3 7,-10 -11,-7 -10,-9 3,-14 10,-4 14,-3 9,4 -9,15 28,3 73,-23 36,-22 39,-38 4,-18 -12,6 -21,8 -21,6 0,-3 14,-13 31,-22 17,-8 28,-11 25,-5 -4,6 -4,11 0,11 13,0 84,-52 84,-62 0,-5 4,-7 9,-4 5,3 24,-11 41,-31 125,-141 169,-320 120,-485 -25,-81 -86,-203 -103,-203 -7,0 -11,-9 -10,-20 2,-21 -45,-83 -105,-140 C 1128,204 1018,166 890,149 758,131 535,150 425,189 268,244 142,348 82,474 50,540 29,617 50,590 c 10,-12 11,-11 4,5 -15,41 -15,92 0,152 45,174 150,322 296,417 30,20 50,36 45,36 -6,0 -3,5 5,10 8,5 20,10 25,10 6,0 3,-5 -5,-10 -9,-6 -10,-10 -3,-10 6,0 18,6 25,13 13,12 25,15 90,19 28,2 38,8 38,20 0,32 168,46 252,22 13,-4 16,-1 12,10 -5,13 -2,13 19,3 14,-6 21,-14 16,-18 -5,-3 19,-18 53,-35 35,-16 64,-32 66,-36 2,-5 8,-8 14,-8 13,0 73,-45 131,-100 27,-25 56,-49 65,-54 30,-17 -72,82 -126,122 -28,22 -48,43 -44,47 4,5 1,5 -6,1 -8,-5 -19,-1 -27,10 -8,11 -15,15 -15,9 0,-5 -4,-4 -8,3 -5,7 -21,15 -37,18 -45,8 -68,26 -25,19 l 35,-5 -40,15 c -22,9 -44,20 -49,25 -12,12 -49,14 -43,3 z M 357,1196 c 0,-8 -6,-12 -15,-8 -10,3 -13,1 -8,-6 4,-6 -12,-23 -36,-41 -24,-16 -56,-42 -71,-56 -16,-15 -30,-25 -33,-23 -5,6 82,80 114,97 12,7 20,16 17,21 -4,7 13,23 31,30 0,0 1,-6 1,-14 z M 161,998 C 113,932 77,862 54,785 39,738 35,731 32,751 c -4,30 33,142 48,147 6,2 10,8 10,13 0,19 92,137 108,139 1,0 -15,-24 -37,-52 z M 133,371 c 45,-57 126,-119 212,-161 77,-39 90,-55 19,-25 -19,8 -36,14 -39,15 -41,6 -104,41 -149,83 -40,38 -26,34 24,-8 14,-11 0,7 -31,40 -31,33 -64,76 -73,95 -9,19 -11,27 -4,16 7,-10 26,-35 41,-55 z" id="path3" />
    <path d="m 592,1153 c -11,-10 -29,-24 -39,-31 -13,-9 -15,-14 -5,-18 26,-12 43,-38 38,-56 -2,-11 0,-31 7,-45 9,-21 8,-27 -8,-40 -14,-11 -16,-17 -7,-20 13,-5 7,-23 -9,-23 -6,0 -7,5 -4,10 11,17 -10,11 -26,-8 -10,-12 -14,-30 -11,-50 3,-21 -6,-57 -28,-108 -17,-42 -29,-78 -27,-81 8,-8 97,9 97,18 0,5 -7,5 -17,2 -11,-4 -14,-3 -9,5 5,8 -2,10 -24,5 l -32,-6 27,54 c 15,30 32,57 37,60 5,3 6,13 3,22 -9,23 11,54 40,61 14,4 25,11 25,17 0,8 -5,7 -15,-1 -13,-11 -14,-10 -6,11 6,18 15,23 32,21 21,-4 22,-2 9,13 -8,9 -15,24 -16,33 -2,10 -6,33 -9,52 -3,19 -12,40 -21,47 -14,10 -13,12 5,18 20,6 100,-13 102,-24 0,-3 2,-19 4,-35 2,-15 -3,-39 -12,-53 -9,-13 -13,-26 -10,-29 11,-11 39,47 35,71 -3,14 0,26 8,29 9,4 14,-2 14,-16 0,-14 3,-19 10,-12 18,18 -30,121 -51,108 -5,-3 -9,0 -9,5 0,18 -75,13 -98,-6 z m 98,-18 c 7,-9 10,-18 7,-21 -8,-9 -87,18 -81,27 9,15 61,10 74,-6 z" id="path4" />
    <path d="m 915,1139 c -4,-5 3,-9 15,-9 40,0 119,-50 139,-88 17,-32 8,-62 -34,-112 -39,-47 -53,-85 -38,-109 5,-9 28,-26 52,-38 73,-37 90,-52 100,-86 8,-29 9,-29 10,-7 1,38 -25,69 -82,94 -72,31 -82,45 -64,88 8,18 22,39 31,47 54,45 60,114 14,158 -50,47 -131,82 -143,62 z" id="path5" />
    <path d="m 862,1098 c -15,-17 -44,-51 -65,-74 -21,-24 -36,-48 -32,-54 8,-14 -18,-13 -32,1 -6,6 -16,8 -22,5 -14,-9 -14,-46 0,-46 7,0 8,7 4,17 -4,12 3,9 22,-10 16,-15 36,-27 45,-27 24,0 118,-95 118,-118 0,-21 -25,-32 -71,-32 -25,0 -76,29 -51,30 23,0 12,18 -15,23 -16,3 -50,11 -77,18 -44,12 -50,11 -62,-6 -23,-31 -16,-40 12,-14 19,16 28,20 31,11 3,-6 10,-9 16,-6 7,4 1,-4 -13,-17 -13,-13 -29,-24 -35,-24 -5,-1 -9,-6 -7,-13 1,-7 -16,-39 -38,-72 -22,-32 -40,-66 -40,-74 0,-9 -4,-16 -9,-16 -5,0 -17,-3 -27,-7 -16,-6 -16,-4 2,25 10,18 22,32 26,32 4,0 5,7 2,15 -4,9 -26,-16 -65,-74 -75,-113 -87,-123 -151,-129 -29,-3 -56,-10 -60,-16 -4,-6 -8,-37 -8,-68 0,-54 2,-58 26,-64 14,-4 51,-3 82,1 32,4 97,10 147,14 l 89,6 8,35 c 5,21 3,52 -4,78 -13,43 -23,49 -85,43 -27,-2 -23,13 16,73 14,22 40,63 56,92 57,101 93,144 112,137 25,-9 63,-39 58,-45 -5,-4 3,-6 44,-10 11,-1 17,-6 15,-10 -8,-13 23,-9 38,5 8,6 23,17 33,23 28,16 30,42 6,75 -12,15 -21,36 -21,45 0,10 -9,28 -21,40 l -21,22 25,38 c 37,60 53,114 36,126 -11,8 -10,9 3,4 22,-7 33,10 12,18 -23,9 -24,9 -52,-26 z m 38,-15 c 0,-5 -16,-34 -35,-66 -19,-32 -35,-62 -35,-66 0,-5 -12,-6 -27,-4 -23,4 -20,1 14,-17 42,-22 64,-50 38,-50 -7,0 -23,12 -34,26 -12,15 -21,23 -21,19 0,-4 -6,-2 -13,4 -15,12 -15,57 0,54 5,-1 29,23 53,53 42,50 60,64 60,47 z M 515,553 c -18,-43 -36,-60 -70,-69 -32,-8 -31,-4 13,56 19,26 41,46 52,46 17,0 17,-3 5,-33 z m 78,-110 c 10,-32 2,-103 -11,-103 -4,0 -8,23 -10,52 -2,29 -8,58 -13,65 -6,6 -32,14 -57,16 -32,3 -26,4 18,3 63,-1 64,-1 73,-33 z m -43,-2 c 5,-11 10,-35 10,-53 v -34 l -97,-12 c -117,-15 -163,-15 -183,-2 -8,5 -10,10 -5,10 6,0 9,16 7,38 l -4,38 54,12 c 52,12 94,17 170,20 28,2 40,-3 48,-17 z" id="path6" />
    <path d="m 920,1091 c 0,-6 7,-11 15,-11 39,0 63,-23 69,-65 6,-36 2,-50 -25,-96 -17,-30 -32,-67 -33,-83 -1,-26 6,-34 45,-55 77,-43 88,-54 91,-94 1,-20 -1,-39 -4,-42 -3,-4 -48,-10 -98,-15 -51,-5 -97,-13 -102,-18 -12,-12 91,-4 177,15 39,8 96,17 128,20 31,3 60,9 63,14 5,8 -44,5 -118,-6 -25,-4 -28,-1 -28,23 0,40 -24,68 -86,103 -30,17 -57,35 -60,40 -3,5 11,40 31,78 57,107 43,171 -42,196 -14,4 -23,2 -23,-4 z" id="path7" />
    <path d="m 655,870 c 3,-5 17,-10 30,-10 13,0 52,-9 87,-20 71,-22 78,-23 78,-12 0,8 -155,52 -184,52 -10,0 -14,-4 -11,-10 z" id="path8" />
    <path d="m 570,790 c 6,-11 8,-26 4,-33 -4,-6 -4,-9 1,-5 4,4 14,3 22,-3 10,-9 13,-8 13,5 0,9 -4,16 -9,16 -5,0 -13,9 -16,20 -3,11 -11,20 -16,20 -6,0 -5,-8 1,-20 z" id="path9" />
    <path d="m 815,704 c 6,-2 9,-19 7,-37 l -4,-33 -80,-1 c -92,-2 -118,-9 -118,-29 0,-8 -8,-14 -17,-14 -9,0 -14,-2 -11,-5 3,-3 19,-2 37,1 20,4 28,10 21,14 -7,4 14,11 46,15 31,4 63,9 71,12 7,3 13,0 13,-6 0,-6 -15,-11 -32,-12 -18,-1 -44,-5 -58,-10 -17,-6 -5,-7 35,-3 33,3 65,9 70,12 6,4 15,7 20,7 6,0 11,4 12,9 1,5 6,12 11,15 16,10 2,71 -17,70 -9,0 -11,-3 -6,-5 z" id="path10" />
    <path d="m 60,564 c 0,-13 73,-119 109,-157 14,-16 35,-33 46,-39 11,-5 1,9 -23,32 -23,22 -62,71 -87,108 -25,37 -45,62 -45,56 z" id="path11" />
    <path d="m 313,562 c 4,-4 -30,-14 -73,-21 -44,-8 -80,-17 -80,-22 0,-12 -1,-12 78,6 37,8 77,15 90,17 l 23,3 -22,13 c -11,8 -19,9 -16,4 z" id="path12" />
    <path d="m 1080,513 c 0,-10 7,-45 15,-78 29,-120 16,-150 -72,-165 l -48,-8 42,-1 c 93,-2 127,47 99,143 -9,30 -16,70 -16,90 0,20 -4,36 -10,36 -5,0 -10,-8 -10,-17 z" id="path13" />
    <path d="m 916,511 c -8,-12 -2,-14 31,-11 29,2 63,-33 63,-65 0,-29 -32,-65 -58,-65 -24,0 -49,28 -54,60 -4,22 -5,23 -13,7 -13,-30 25,-71 68,-75 32,-3 39,1 57,30 26,43 25,52 -7,87 -30,33 -77,49 -87,32 z" id="path14" />
    <path d="m 657,495 c 27,-19 43,-72 43,-142 0,-29 5,-53 10,-53 13,0 13,28 -1,110 -10,66 -30,100 -58,100 -11,0 -10,-4 6,-15 z" id="path15" />
    <path d="m 755,503 c -41,-10 -40,-24 2,-17 36,5 43,3 57,-18 9,-13 19,-47 22,-74 10,-74 26,-91 19,-19 -7,62 -16,87 -43,118 -15,17 -22,18 -57,10 z" id="path16" />
    <path d="m 1234,351 c -11,-10 -40,-31 -63,-46 -24,-14 -41,-29 -38,-32 6,-5 111,70 122,87 10,15 1,12 -21,-9 z" id="path17" />
    <path d="m 440,233 c 52,-23 130,-42 130,-32 0,5 -8,9 -18,9 -11,0 -45,9 -77,20 -68,23 -85,25 -35,3 z" id="path18" />
    <path d="M 990,221 C 968,208 874,190 778,180 l -83,-9 96,5 c 91,4 193,24 228,44 13,8 13,9 1,9 -8,0 -22,-3 -30,-8 z" id="path19" />
    <path d="m 590,190 c 14,-9 99,-15 89,-6 -2,2 -26,6 -54,10 -34,4 -45,3 -35,-4 z" id="path20" />
    <path d="m 995,140 c -22,-10 -53,-22 -70,-26 -16,-3 -24,-9 -17,-11 18,-7 102,17 102,29 0,5 10,6 23,3 15,-4 18,-3 8,3 -11,8 -11,10 0,15 8,3 10,5 4,6 -5,0 -28,-9 -50,-19 z" id="path21" />
    <path d="m 550,107 c 0,-11 109,-28 178,-28 82,0 162,10 162,21 0,4 -24,3 -52,-2 -53,-10 -222,-5 -265,8 -13,3 -23,4 -23,1 z" id="path22" />
  </g>
</svg>